<?xml version="1.0" encoding="UTF-8" standalone="no"?>
<!-- Created with Inkscape (http://www.inkscape.org/) -->

<svg
   xmlns:dc="http://purl.org/dc/elements/1.1/"
   xmlns:cc="http://creativecommons.org/ns#"
   xmlns:rdf="http://www.w3.org/1999/02/22-rdf-syntax-ns#"
   xmlns:svg="http://www.w3.org/2000/svg"
   xmlns="http://www.w3.org/2000/svg"
   xmlns:sodipodi="http://sodipodi.sourceforge.net/DTD/sodipodi-0.dtd"
   xmlns:inkscape="http://www.inkscape.org/namespaces/inkscape"
   width="333.05045mm"
   height="333.02222mm"
   viewBox="0 0 1180.1 1180"
   id="svg2"
   version="1.1"
   inkscape:version="0.91 r"
   sodipodi:docname="dictionary.com_tacticalfreak_alt.svg"
   inkscape:export-filename="D:\Work\Dev\offline_dictionary.com\offline_dictionary.com\dictionary.com_tacticalfreak_256.png"
   inkscape:export-xdpi="19.519413"
   inkscape:export-ydpi="19.519413">
  <defs
     id="defs4" />
  <sodipodi:namedview
     id="base"
     pagecolor="#ffffff"
     bordercolor="#666666"
     borderopacity="1.0"
     inkscape:pageopacity="0.0"
     inkscape:pageshadow="2"
     inkscape:zoom="0.10164661"
     inkscape:cx="-2207.9992"
     inkscape:cy="862.48939"
     inkscape:document-units="px"
     inkscape:current-layer="layer1"
     showgrid="false"
     fit-margin-top="0"
     fit-margin-left="0"
     fit-margin-right="0"
     fit-margin-bottom="0"
     inkscape:window-width="1536"
     inkscape:window-height="803"
     inkscape:window-x="-7"
     inkscape:window-y="31"
     inkscape:window-maximized="1" />
  <metadata
     id="metadata7">
    <rdf:RDF>
      <cc:Work
         rdf:about="">
        <dc:format>image/svg+xml</dc:format>
        <dc:type
           rdf:resource="http://purl.org/dc/dcmitype/StillImage" />
        <dc:title></dc:title>
      </cc:Work>
    </rdf:RDF>
  </metadata>
  <g
     inkscape:label="Layer 1"
     inkscape:groupmode="layer"
     id="layer1"
     transform="translate(99.707062,110.54242)">
    <rect
       style="fill:#ffffff;stroke:#000000;stroke-width:1.3096559;stroke-linecap:round;stroke-linejoin:round;stroke-miterlimit:4;stroke-dasharray:none;stroke-opacity:1"
       id="rect4933"
       width="1178.6903"
       height="1178.6903"
       x="-99.002213"
       y="-109.88758"
       ry="211.51714" />
    <path
       style="fill:#096cc4"
       d="M 45.818056,1062.9516 C 92.224241,1014.7841 -70.049096,985.4418 -89.418075,920.79005 -97.582816,893.53701 -99.707062,847.36172 -99.707062,697.13578 l 0,-189.3107 15.174145,0.65379 c 8.345779,0.35966 125.945393,28.1862 261.332477,61.83676 l 246.15834,61.18282 6.06369,35.43667 c 3.58888,20.97376 3.58888,37.72563 0,41.04496 -3.33503,3.08462 -92.55632,10.86114 -198.26952,17.28127 -105.7132,6.42011 -199.792894,15.05254 -209.065981,19.18323 -20.096919,8.95202 -25.2104639,31.73516 -9.941978,44.29604 9.193879,7.56347 44.517222,6.81521 221.193549,-4.68562 115.63883,-7.52758 213.28726,-12.55406 216.99649,-11.16999 3.70923,1.38401 17.15607,22.44721 29.88189,46.80693 46.14616,88.33316 131.32059,158.7601 234.63088,194.00586 67.36086,22.9812 167.6281,25.6218 243.29731,6.4075 27.06756,-6.873 50.93787,-10.7873 53.04527,-8.6985 7.239,7.1756 -59.02748,57.0432 -93.1384,57.3866 -53.80714,0.5419 -816.58279,1.7225 -877.92,0.4762 z M 757.52369,965.62549 C 618.60251,926.99376 519.32908,821.91186 493.31927,685.96266 459.83563,510.94901 571.23187,336.44159 749.58303,284.51339 c 51.85145,-15.09693 143.42135,-13.95256 197.01541,2.46211 42.63308,13.05758 118.94266,54.11916 128.62556,69.21232 5.7225,8.92024 7.2917,519.98877 1.6388,533.80989 -5.3446,13.06707 -71.0038,50.86244 -115.87691,66.7021 -51.96996,18.34468 -153.56422,22.80158 -203.4622,8.92568 z M 919.32626,807.5922 C 987.04421,784.71288 1033.88,727.63147 1050.8325,647.31843 1073.8163,538.43073 1033.395,457.26296 948.401,441.63193 c -32.86868,-6.0448 -153.16849,-0.88252 -161.02984,6.91006 -2.25373,2.23401 -18.1445,82.93642 -35.31286,179.33864 -26.31838,147.78102 -29.71813,176.21616 -21.67226,181.26451 13.93054,8.74079 162.077,7.52316 188.94022,-1.55294 z m -86.66648,-63.76385 c -8.34579,-1.62594 -15.21246,-5.00322 -15.25919,-7.50512 -0.0472,-2.50187 8.26889,-52.20987 18.47927,-110.46222 14.70132,-83.87377 21.13927,-107.27935 30.93826,-112.4777 18.45898,-9.79249 65.30365,0.50606 83.25892,18.30441 13.45541,13.33769 15.77246,22.32715 15.74037,61.06797 -0.0202,24.98538 -3.22104,56.79121 -7.11196,70.67961 -7.70232,27.49322 -40.83807,69.1542 -59.0204,74.20523 -22.91181,6.36497 -52.22536,9.07123 -67.02527,6.18782 z M 156.56736,505.20095 -96.33503,443.46828 -98.193744,334.09472 c -1.022291,-60.15546 0.495123,-111.61284 3.372033,-114.34975 4.810166,-4.57607 521.535601,259.04648 536.149081,273.5321 9.21062,9.13003 -9.52202,70.96399 -21.95257,72.46251 -5.44777,0.65673 -123.71112,-26.58566 -262.80744,-60.53863 z M 186.60717,291.78353 C 38.068109,213.89866 -87.491404,147.51254 -92.41395,144.25881 -106.16296,135.17091 -98.312344,50.757566 -79.775041,8.3595231 -60.843968,-34.939125 -12.692458,-80.642147 31.992139,-97.724328 63.76633,-109.87107 87.77569,-110.54242 490.39853,-110.54242 c 402.62283,0 426.63218,0.67135 458.40637,12.818092 44.11195,16.863254 92.674,62.726489 112.3265,106.0838511 14.2004,31.3290139 16.0353,46.5178299 18.1425,150.1714769 1.457,71.66733 -0.1328,115.31719 -4.1996,115.31719 -3.5992,0 -25.8525,-8.92334 -49.4517,-19.82963 -71.03258,-32.82761 -120.71455,-42.36868 -201.30861,-38.65987 -53.96364,2.48332 -82.36734,7.46286 -118.92137,20.84845 -26.41341,9.67223 -49.49079,17.58589 -51.28302,17.58589 -1.79229,0 -36.32568,-49.66651 -76.74084,-110.37001 C 502.92403,31.60715 485.6394,14.908999 463.3347,33.258279 c -5.51569,4.537561 -10.02851,13.970282 -10.02851,20.961605 0,6.991322 30.78365,58.336936 68.40813,114.101356 37.62446,55.76444 69.71117,106.32915 71.30377,112.36603 2.67201,10.12842 -38.69601,53.58927 -50.58775,53.14703 C 539.77749,333.7356 455.6666,266.11985 355.51725,183.57698 237.45769,86.272539 168.04084,33.444035 158.10879,33.342628 c -9.88037,-0.100873 -18.0415,5.767171 -22.98823,16.529085 -6.38754,13.896444 -5.5179,19.046661 5.20263,30.811278 7.07968,7.7692 87.24143,75.024319 178.13723,149.455849 90.8958,74.43152 169.3601,140.22105 174.36512,146.19895 7.72988,9.23247 7.16185,14.15848 -3.7727,32.7172 -7.07999,12.01654 -17.26064,22.40832 -22.62367,23.09282 -5.36303,0.68449 -131.28292,-62.47943 -279.822,-140.36428 z"
       id="path4901"
       inkscape:connector-curvature="0"
       sodipodi:nodetypes="ssscsscsssssscssscscsssscssssssssssssssscsssssssssssssssssssssssssssscssssssssss" />
    <g
       id="g4897"
       transform="matrix(0.71809541,0,0,0.71809541,-93.050913,298.32504)">
      <path
         id="rect4882"
         transform="translate(-9.2685341,-126.14257)"
         d="m 310.02734,9.5488281 c -2.96689,-0.064657 -5.91626,0.1237493 -8.83984,0.7246099 -20.3558,4.183569 -39.26619,15.384915 -55.55859,28.285156 -17.9821,14.23807 -31.67527,33.476054 -44.44727,52.527344 -10.986,16.387112 -21.54154,33.649472 -27.27344,52.527342 -4.4294,14.58791 -2.71188,30.39198 -5.05078,45.45703 -2.1073,13.57282 -1.60083,28.29607 -8.08203,40.40625 -3.8198,7.13737 -9.87557,13.66511 -17.17187,17.17188 -10.9927,5.28336 -24.54984,1.0161 -36.36524,4.04101 -11.994098,3.07068 -24.135402,7.13994 -34.345702,14.14258 -14.928,10.23816 -22.310153,29.36379 -37.376953,39.39649 -8.759687,5.8329 -23.954938,7.96504 -33.3515625,11.13476 0,0 4.0053938,544.7174 3.3029268,606.95363 -0.9936847,88.03709 -16.0837373,138.82799 27.8739347,194.12469 62.253388,78.3119 106.307586,80.1155 294.471576,81.3943 14.31849,-1.6439 27.35393,-4.4825 45.0957,-9.7246 80.4045,-23.7568 147.14329,-60.2746 223.24219,-82.832 58.8974,-17.4585 123.49549,-15.8598 179.80859,-40.4063 26.1986,-11.4197 49.66524,-29.1528 70.71094,-48.4882 21.1448,-19.42652 27.57238,-56.82781 54.54688,-66.66996 20.5972,-7.5153 46.06129,23.74941 64.65039,12.12305 18.353,-11.47872 22.97117,-41.77513 17.17187,-62.63086 -12.4085,-44.62378 -58.23001,-74.7568 -94.57031,-107.05273 -52.5727,-46.72176 -66.14921,-56.29301 -90.28711,-76.28907 -14.9845,-12.4133 -23.70223,-11.66284 -36.36523,-11.11132 -5.0908,0.22173 -9.65348,3.37238 -14.17579,5.7207 -2.1393,1.1109 -4.38246,2.20864 -6.07226,3.92773 -5.9976,6.10153 -7.54311,15.71483 -13.57031,21.78711 -8.9343,9.00109 -20.28198,15.8665 -32.14258,20.35743 -6.3147,2.39101 -13.327,4.24388 -20,3.21289 -23.0456,-3.56058 -43.4894,-17.92308 -62.5,-31.42774 C 553.36837,685.71867 494.0821,636.96863 454.7832,574.75977 443.8454,557.4456 435.23744,537.0263 435.14062,516.54688 c -0.062,-13.02565 4.69588,-26.45727 12.14258,-37.14454 8.3332,-11.95951 20.78326,-21.6499 34.28516,-27.14257 6.4299,-2.61574 13.77684,-1.91827 20.71484,-2.14258 9.2877,-0.30028 18.56512,0.99922 27.85742,1.07226 5.23931,0.0412 10.70715,1.18351 15.71485,-0.35742 6.9117,-2.12681 13.00709,-6.76561 18.21289,-11.78515 6.2765,-6.05198 10.47,-13.97989 15,-21.42969 4.5372,-7.4616 8.39048,-15.32923 12.14258,-23.21485 4.7888,-10.06421 11.33074,-19.72787 13.21484,-30.71289 1.5127,-8.81961 0.43505,-18.11853 -1.78516,-26.78711 -4.1363,-16.14963 -13.13896,-30.69319 -21.07226,-45.35546 -7.6085,-14.06193 -21.34722,-25.23764 -25.35742,-40.71485 -4.1856,-16.15403 5.2703,-33.54407 2.5,-50 -7.2886,-43.29466 -20.21226,-89.24397 -49.28516,-122.142577 -29.3948,-33.26293 -73.60063,-52.966928 -116.42773,-64.642578 -18.0382,-4.91763 -37.39507,-0.579609 -56.07227,-1.429687 -8.94472,-0.407116 -17.99776,-2.8743877 -26.89844,-3.0683599 z"
         style="fill:#ff0000;stroke:#000000;stroke-width:4.32940197;stroke-linecap:round;stroke-linejoin:round;stroke-miterlimit:4;stroke-dasharray:none;stroke-opacity:1"
         inkscape:connector-curvature="0"
         sodipodi:nodetypes="ssssssssssscsscssssssssssssssssscsssssssssssssssss" />
      <path
         inkscape:transform-center-y="191.42911"
         inkscape:transform-center-x="1194.2812"
         sodipodi:nodetypes="cccccccccccccccccccccccccccccccccccccccccccccccccccccccccccccccccccccccccccccccccccccccccccccccccccccccccccccccccccccccccccccccccccccccccccccccccccccccccccccccccccccccccccccccccccccccccccccccccccccccccccccccccccccccccccccccccccccccccccccccccccccccccccccccccccccccccccccccccccccccccccccccccccccccccccccccccccccccccccccccccccccccccccccccccccccccccccccccccccccccccccccccccccccccccccccccccccccccccccccccccccccccccccccccc"
         inkscape:connector-curvature="0"
         id="path4852-9"
         d="m 222.40249,1070.9671 c -29.8034,0.615 -121.9559,-28.2347 -46.1572,-23.0281 20.4919,11.9073 51.9871,4.9935 43.28,-21.3776 12.0782,-37.88439 46.1257,-62.62409 53.2855,-100.68913 4.8561,-17.26736 19.5202,-57.84126 7.461,-13.70366 -12.881,31.03766 -7.7781,102.53659 -24.3573,108.84459 9.4388,-23.43709 0.698,-70.24123 -8.9963,-23.42959 -36.3829,57.96209 54.0803,31.03909 42.6947,15.39829 -32.6843,14.8213 22.5887,-27.27969 2.3072,-47.58639 -6.1267,-19.75434 0.5667,-72.5474 9.3669,-23.43664 1.1154,25.42574 27.5117,44.80314 12.0765,6.4071 20.1744,29.60894 59.9845,24.34464 32.5374,3.7184 -1.5918,17.16104 -69.3908,-51.25296 -40.6142,-77.39926 -1.2281,37.9711 17.3331,47.3704 27.2802,51.55646 28.9235,41.30734 36.3947,-15.61996 20.0191,-33.21266 27.7038,3.5522 -22.5837,-49.71927 7.9547,-28.40423 9.8221,27.90373 67.4527,-18.01064 23.6859,18.13923 23.3723,-0.6078 38.6988,-34.69684 56.9956,-3.8434 27.3665,-32.78269 77.5271,-33.17209 103.5749,-66.68152 10.7872,-36.02949 -23.4669,-21.85721 -31.0042,-0.65721 -37.2672,-6.63151 -18.5315,42.02499 -53.4895,10.22728 34.4456,-8.33434 -50.4675,-59.17925 -45.0485,-19.62354 44.7429,21.62863 -49.6616,30.05298 -67.9944,47.71775 -38.27,28.97344 -96.9764,9.27435 -142.0538,27.08244 -32.9107,-12.92622 -81.6742,12.214 -98.8891,11.199 -28.556995,-18.19619 -8.389195,49.85556 -10.748395,74.5874 -3.9392,27.936 27.096095,66.92479 26.888595,19.3255 0.5908,-36.51114 -36.273595,-88.4669 23.639,-95.0853 33.3936,20.1531 37.3912,50.40206 19.0252,83.4845 -0.2509,32.84479 -41.5949,98.24099 -62.3648,50.40019 -18.045395,-22.24789 -18.279795,-90.99863 -39.463895,-82.77273 -2.4605,23.2652 -34.2099,53.36824 -18.497,16.2194 9.4273,-16.1938 55.1711,-89.52677 17.9605,-46.03636 -11.0453,14.9645 -37.9608,60.5021 -20.0433,14.5788 13.7204,-13.5988 46.6303,-57.63686 5.9278,-26.5453 -20.3273,21.0035 -48.91370045,39.91476 -46.4493004,-6.5087 32.1511004,-15.6996 84.4524004,-15.188 96.4103004,-49.5317 -27.5119,-19.45185 -77.485,18.94487 -99.7099004,40.0616 -12.7833996,-71.24164 -4.0426,-144.61313 -6.7255,-216.78786 -0.096,-158.25228 -0.2841,-311.86169 -0.2408,-470.11396 40.4983004,-6.96796 66.3388004,-80.74211 119.5610954,-69.46828 63.1262,-7.89678 35.065,-92.342639 61.3863,-133.283268 33.0334,-89.963309 140.9253,-129.576932 231.5968,-111.670562 59.5417,11.05151 119.5667,47.637164 146.5367,101.816262 16.4713,49.729659 12.6945,103.819881 7.1418,153.804848 30.7995,39.62156 51.8359,96.68836 16.4679,141.29322 -10.851,23.73582 -22.6485,54.61445 -55.52,51.39763 -44.1817,1.65419 -85.8378,47.59231 -66.8446,96.55394 26.363,52.41044 24.8786,48.18027 58.96,78.49712 81.3547,71.15977 108.5752,88.1328 155.2488,130.06586 19.269,-10.19186 52.914,-25.55283 67.8272,-48.30774 53.4566,-14.05685 83.6645,45.51728 124.3123,69.58153 39.5484,34.23801 83.1955,64.81723 120.56,100.96786 19.6662,22.57371 7.9278,56.02313 -2.7817,79.7445 -23.0451,42.2275 -66.3956,0.75492 -89.5694,10.83845 14.5272,17.09635 -25.8399,52.42555 -58.5582,58.45115 -14.8796,48.89216 -29.3947,110.54319 -96.0707,113.58019 -61.3859,23.8244 -104.3571,-54.07469 -165.0331,-20.74289 -105.2915,30.58699 -208.0103,85.08769 -320.9407,75.10199 -7.9367,-0.1533 -15.8788,-0.2477 -23.8041,-0.7149 z m 101.0471,-71.55839 c 19.0143,-1.7589 65.9105,-22.205 18.7428,-14.5368 -8.074,0.946 -52.6604,20.83659 -18.7428,14.5368 z m -164.9682,-28.9148 c 23.7076,-46.1515 -29.0342,8.024 0,0 z m 214.5481,-2.5969 c -4.7917,-44.6101 -27.5115,-1.9062 0,0 z m -233.5823,-14.73944 c 37.0652,-16.8547 8.4656,-89.10581 -8.3306,-31.47976 -3.3679,7.75026 -7.3688,37.15266 8.3306,31.47976 z m 365.7599,-2.4463 c -13.0046,-21.2684 -15.4862,-37.42586 8.2788,-24.0652 6.2079,-23.33996 -38.1952,-103.5104 -18.8402,-40.99946 16.616,46.00126 -23.1019,-39.56828 -14.694,11.549 3.0296,16.4486 8.0148,54.22556 25.2554,53.51566 z m -108.164,-7.4147 c -4.7733,-23.89276 -31.3467,-45.92096 -9.5507,-7.4465 0.8255,3.0532 11.1312,18.5741 9.5507,7.4465 z m 200.7532,-13.6919 c 4.2672,-57.06028 -21.6097,-4.78056 0,0 z m 70.1555,2.1618 c -1.4571,-21.35656 -8.7652,-57.63316 8.2356,-18.86116 38.6486,-12.8465 -55.6941,-59.2984 -42.4195,-12.8508 26.0941,-4.5996 23.4825,17.9945 34.1839,31.71196 z m -249.2488,-37.43086 c 6.3188,-31.06431 -20.993,-7.7977 0,0 z m 119.5261,-6.8136 c 3.9033,-28.50641 -33.3052,-52.16783 -11.3315,-7.8963 1.7096,3.4271 7.9341,14.6047 11.3315,7.8963 z m 89.3968,-5.0141 c 67.6531,-21.65058 -52.0895,-32.72797 0,0 z m -68.5117,-1.4495 c -8.486,-28.01759 -12.2398,9.6148 0,0 z m 49.9899,-10.31899 c -15.3509,-55.74956 35.3445,10.91959 39.7509,-30.2525 28.3276,-11.80574 -85.7011,-4.28206 -40.8543,33.22781 z m 81.3017,-4.1801 c 25.2654,-38.06558 -50.5679,-37.60423 -17.537,-4.13139 10.8027,-6.39517 12.7172,10.95637 17.537,4.13139 z m -113.3061,-6.18556 c 22.8489,-63.80288 -27.5415,10.07326 0,0 z m -28.7415,-9.5574 c 3.2596,-27.47534 -17.557,3.47324 0,0 z m 238.8148,-4.84981 c -2.3243,-24.53138 -97.229,3.72484 -101.5495,-36.93005 -40.7749,-42.96485 28.7997,-76.6455 64.6212,-86.65337 -20.6906,-5.61765 -40.7685,1.61989 -7.0962,-13.9789 40.4044,-4.54005 20.3614,-42.33516 -1.6038,-15.61682 -8.7584,-4.81737 -62.3324,11.09429 -29.8284,33.03693 -44.4735,-5.91119 -40.2729,49.47397 -55.2798,71.10606 -33.2561,1.01497 -105.2237,-36.20612 -94.2826,22.75043 27.1649,2.30383 45.9459,-34.99688 43.1589,-1.82958 48.5846,9.07119 97.4025,20.41655 146.7225,27.97549 11.6422,1.73528 23.446,0.47857 35.1377,0.13981 z m -166.2607,-37.69761 c -6.0661,-6.58171 13.7599,3.24688 0,0 z m 199.765,35.90844 c -7.4671,-28.03704 -51.2973,-32.12044 -11.4934,-4.85712 -0.6082,-3.89058 13.9989,15.1828 11.4934,4.85712 z M 1.8320946,843.6101 C 28.417195,803.99185 82.001895,775.20594 82.626295,723.02551 c -28.0252,-1.6247 -68.6866,73.53971 -57.1488,10.0057 -14.2295,-41.42247 -41.6577,37.5739 -10.1361,42.02383 -22.5761004,7.16531 -20.6239004,53.18625 -13.5093004,68.55506 z M 304.38809,835.36683 c -0.1432,-32.66325 -30.8272,5.47851 0,0 z m 416.3981,-12.71493 c 26.7182,5.16193 85.2174,-7.73375 26.0177,-9.79994 -13.5288,-5.37867 -72.418,6.34622 -26.0177,9.79994 z m 209.6288,-0.84146 c 17.9677,-16.79108 25.3006,-71.53122 8.7301,-50.0249 -16.227,-45.61284 -67.7501,-67.32051 -100.5107,-101.22073 -31.7837,-25.32477 -66.1479,-76.3702 -106.4267,-83.12715 -34.5861,33.44817 43.7825,66.83703 67.4504,92.62473 39.73,18.66421 67.2207,57.38275 102.8251,83.50078 33.274,8.92915 37.3585,71.75362 2.4021,27.8192 -28.9587,-28.26961 -56.2312,-58.58354 -87.1114,-82.01026 -5.8392,-24.16866 -33.8019,-9.60736 -1.4491,17.2558 35.606,33.19875 68.0098,71.5669 109.5416,97.52405 z M 737.72189,600.20208 c -9.5276,-19.64792 21.7045,2.72881 0,0 z m 83.6885,220.08906 c 4.0122,-24.68204 -24.7066,-53.68745 -16.306,-9.94859 -1.5655,6.10876 11.6646,17.88733 16.306,9.94859 z m -331.5343,-10.52241 c 30.7423,-26.79201 -30.6534,8.0196 0,0 z m 242.9792,-11.02739 c -3.0427,-33.6957 -40.8088,20.09282 0,0 z m 49.5445,-0.8324 c -12.6952,-50.68453 -10.4101,27.5454 0,0 z m -137.7375,-18.02808 c -14.0467,-26.30892 -19.9872,-30.82079 4.1945,-38.40905 14.1491,6.65615 43.3995,-1.54537 4.5578,-12.32416 -33.446,-11.43639 -100.8419,62.30222 -35.3784,42.50407 8.053,8.28093 16.2864,-6.66426 25.671,12.40508 z m -80.0192,-1.14203 c 28.4282,-16.55444 50.7395,-67.4103 65.0714,-100.30267 -44.1786,6.41611 -59.0724,52.35752 -74.8618,87.10623 -2.9395,10.77166 -4.5235,16.40228 9.7904,13.19644 z m 19.616,-45.34717 c 8.1169,-35.58611 19.7569,-2.3277 0,0 z m 141.712,9.36399 c 3.0614,-18.19745 -26.3061,13.88336 0,0 z M 517.68849,732.3106 c -5.5824,-26.49012 -17.5699,11.62785 0,0 z m 257.0438,-11.4033 c 5.3045,-27.52297 -27.0575,5.32295 0,0 z m -281.8905,-7.49012 c 15.0462,-24.05588 -21.038,-29.68842 0,0 z m 185.0151,0.4657 c 9.6881,-23.42589 4.331,-73.76154 -13.0184,-26.31773 -0.5774,8.24817 1.2602,27.32908 13.0184,26.31773 z M 27.107995,711.96959 c 16.2708,-21.95452 27.9235,-25.11919 46.3303,-13.96476 -0.2866,-25.76411 31.212095,-63.8103 -18.2839,-57.91238 -56.9621004,-34.42064 -75.9652,64.77834 -28.0464,71.87714 z m 626.000895,-0.97782 c 18.3875,-32.65415 -33.2929,0.14971 0,0 z m -101.1223,-6.22701 c 27.9544,-24.10087 40.551,-62.48476 84.4602,-38.47491 6.8783,-19.05768 -91.8358,-30.38507 -41.508,-41.95297 -23.4172,-28.06125 -52.088,-18.71134 -84.7773,-10.56043 -23.099,1.06723 -11.3491,93.39165 3.3476,32.6226 11.1561,-39.51819 26.263,-11.17369 4.1003,12.06347 -17.2979,69.158 48.1933,-60.9885 48.4076,6.83963 3.4392,18.13657 -12.3024,-11.80307 -23.5873,16.53189 -17.7132,-5.83075 -1.3991,33.4765 9.5569,22.93072 z m -110.7264,-16.68247 c -11.2643,-15.22829 -11.131,18.49996 0,0 z m 258.5165,-4.96154 c 20.1179,-25.85502 -21.6044,12.172 0,0 z m 31.6365,-1.1457 c 4.8535,-21.55326 -37.1355,-47.20007 -28.0111,-19.61958 24.6645,-4.76933 15.4505,34.35734 28.0111,19.61958 z m -126.3893,-5.24475 c 20.4624,-20.88201 -34.778,2.41568 0,0 z m -411.7266,-24.14032 c 27.5287,-20.41055 -29.3947,5.14254 0,0 z m -11.904,-5.08392 c 9.374,-22.70286 -23.3475,10.60517 0,0 z M 96.012795,612.21997 c 1.9327,-32.08406 -26.3283,0.0161 0,0 z m -57.8261,-23.47822 c -5.8456,-24.47659 -39.6689004,-50.11679 -26.3621,-5.74385 4.7132,9.22534 18.3471,7.15969 26.3621,5.74385 z m 281.890895,-37.9418 c -6.7332,-32.56023 -68.913,10.47784 -15.1396,-0.41124 10.6208,0.9151 6.9091,18.75535 15.1396,0.41124 z m -200.6411,2.15805 c 18.7017,-10.42021 31.8106,-64.57898 8.6362,-30.74068 -2.2324,-67.08501 -28.741895,48.82615 -8.6362,30.74068 z M 81.442395,530.61863 c 25.420695,-36.84783 -56.855,-29.74658 -59.4123,-73.46815 -8.3894,22.49506 35.2258,61.23417 58.0925,77.75429 4.9726,1.92758 1.5214,-2.38251 1.3198,-4.28614 z m 211.608395,0.7059 c -1.4524,-24.55467 -36.0592,-6.9134 0,0 z m -129.8674,-3.65095 c 5.1121,-30.28953 -16.75,11.6946 0,0 z M 33.768095,524.80767 c 37.1354,-20.17072 -55.0601,-11.64035 -9.0899,2.69078 z m 151.589295,-0.13111 c -0.1936,-22.40148 -22.2251,10.74231 0,0 z m 21.1049,-5.19044 c -20.0873,-27.97385 21.2374,11.17035 14.659,-20.30485 18.7663,10.43431 54.1932,11.25751 20.6211,-7.31506 -23.0121,-16.7742 -76.0886,15.99597 -35.2801,27.61991 z m 114.8159,-5.94495 c 0.5598,-26.61479 -73.9266,-100.36531 -50.5114,-39.15971 9.6504,20.6155 46.2162,53.26997 19.2025,10.97388 -33.2151,-67.00747 22.3598,39.86772 31.3089,28.18583 z m -178.9582,-16.65722 c -11.0878,-20.72919 -8.4884,13.35758 0,0 z m 190.6714,-2.96993 c -11.0997,-29.94948 -8.4041,21.48579 0,0 z m -108.7333,-16.78494 c 29.4597,-19.67526 -16.7617,-8.63291 0,0 z M 86.543895,459.43955 c 24.458195,-14.83976 -11.7373,-45.5615 17.392295,-29.70822 -3.1324,-33.7387 -81.042695,-70.43268 -83.744595,-53.60568 11.2211,8.56889 26.1647,40.37748 55.9053,40.56667 3.8407,6.6418 5.6336,52.45712 10.447,42.74723 z m 120.203295,0.94781 c 18.3572,-46.00903 -31.6272,-4.57878 0,0 z M 57.459695,438.43697 c 13.7994,-48.78603 -21.8538,26.32278 0,0 z m 127.288995,-4.62232 c 1.9464,-36.46216 -22.8535,10.34436 0,0 z m -162.226795,-4.4492 c 27.3814,-25.73619 -43.6073,-61.48513 -11.9896,-12.26066 -0.8907004,6.07534 3.2966,19.99591 11.9896,12.26066 z m 127.337495,2.18453 c 4.1919,-25.51475 -36.3855,-11.20044 0,0 z m 7.4243,-19.75379 c 11.5853,-41.94494 -25.5314,7.66734 0,0 z m -24.3151,-22.57634 c 10.2924,-30.00673 -29.7947,16.90842 0,0 z m -38.988195,-2.68036 c -0.8267,-16.70593 -86.7541004,-50.03167 -72.3005,-31.55892 23.5103,9.7413 46.7015,32.63248 72.3005,31.55892 z m 105.868095,-8.45317 c -1.3402,-22.73611 -36.6258,-87.13442 -16.5028,-27.98602 0.4804,1.22719 15.97,44.52428 16.5028,27.98602 z m -91.946,-6.89741 c 3.6805,-33.9697 -24.529595,0.81366 0,0 z m 32.9348,-13.05771 c 2.5223,-37.04298 -69.169895,-39.18627 -20.3277,-14.23189 8.8895,-2.39115 14.9623,24.45728 20.3277,14.23189 z m 22.6706,-14.47671 c -4.2045,-42.97418 1.957,-29.8695 10.55,-37.16329 -26.5272,-56.74733 -76.940695,-100.77884 -91.328795,-163.72533 -11.9298,-17.62709 -89.1202004,44.86241 -39.0361,62.7568 -11.725,-11.52898 -55.7651,-32.16771 -23.4833,-1.18557 14.0924,46.1558 87.145895,46.31675 87.617695,90.69594 13.2781,14.35252 32.5273,41.64029 41.6269,10.87259 -2.082,7.62239 10.9673,75.20184 14.0536,37.74886 z m -29.8804,-52.28874 c -2.7069,-9.02088 3.4427,-6.11573 0,0 z M 91.702795,252.97019 c -25.1548,-22.76339 32.153395,-40.13076 10.722095,-0.12995 l -5.448495,1.1135 z m -7.6011,95.3303 c 15.0466,-26.79267 -37.9628,-2.38083 0,0 z m -47.5128,-10.69816 c 18.4594,-22.49776 -61.6265,-1.51116 -8.0738,2.05927 z M 538.78869,320.18214 c 26.0753,-22.9823 69.0129,-79.87822 44.9991,-109.73945 -18.731,-8.39959 8.7823,25.41246 -7.7787,34.58326 -7.8285,26.5471 -36.117,84.90314 -61.746,61.75069 2.6364,11.97952 11.2988,23.99654 24.5256,13.4055 z m -488.028995,0.73459 c 11.7034,-26.74766 -20.2695,2.27893 0,0 z M 431.48029,310.72331 c 29.5751,-11.80562 40.9055,-49.92416 74.1295,-38.08589 27.2332,53.02165 3.0217,-56.85051 -36.1778,-13.43736 -36.5712,12.02832 -75.2492,48.62751 -103.1067,-2.15946 -47.2092,-14.73278 -18.1736,-85.85795 24.7252,-67.96644 57.6714,1.69632 115.1311,8.02196 171.7522,18.44276 -28.0423,-26.12566 -88.2408,-24.75645 -126.223,-39.92705 -8.1686,7.21955 -52.4924,-12.03197 -69.7409,-2.10712 -24.3562,11.48382 -56.3337,53.71397 -45.6169,76.36168 28.7611,25.56741 54.7856,55.91963 91.151,71.21401 l 11.2735,0.79939 z M 39.125895,307.57674 c 11.462,-21.99975 -30.1207004,8.28271 0,0 z m 317.920595,-6.12992 c -7.1647,-23.38244 -57.3879,-47.28906 -19.2762,-10.57262 1.4925,-3.1469 17.4768,20.84614 19.2762,10.57262 z m 176.4524,-3.59009 c 38.4507,-67.09521 -30.017,17.60016 0,0 z M 25.672395,296.8959 c 11.9808,-25.89399 -20.4473004,2.19084 0,0 z m 40.2289,-25.72247 c -7.6381,-28.4294 -57.4242004,-56.86941 -54.2176,-18.5043 17.1676,7.00247 34.5456,22.54821 54.2176,18.5043 z M 379.23279,247.39136 c 26.4417,-39.96919 -10.4076,-21.56041 -3.9079,5.12209 z m 190.3064,-5.50318 c -2.0314,-6.61695 -4.5901,6.54955 0,0 z m -207.7848,-6.86787 c 11.9979,-26.61341 -18.0738,10.00109 0,0 z m 201.0259,1.03606 c 13.9029,-16.92192 -22.6684,2.51326 0,0 z m -259.1349,-10.8153 c 17.0322,-16.10012 54.9126,-103.21467 16.2745,-48.79782 -2.4372,25.92287 -52.4149,58.74847 -26.6546,15.4816 -19.8025,27.71586 -41.7414,-30.17662 -19.0785,-3.64906 41.0301,-2.7536 25.5106,-18.32953 9.1583,-38.34441 -18.1986,20.43422 14.6885,39.69878 -24.8135,20.43634 -7.7951,-23.37659 11.2179,-42.61024 -9.1999,-46.56551 -8.157,-35.839317 -26.1503,56.37829 -19.0889,3.96056 9.1902,-60.110007 45.0674,-35.360407 72.4419,-2.37774 43.2669,26.4062 -32.311,-48.386327 -50.3016,-55.277437 1.3585,-24.119702 -72.7592,-39.916862 -36.8349,-51.853291 197.4444,9.100909 70.4363,-54.339698 59.4104,-86.110088 -33.2738,-7.63882 18.4288,36.444605 -16.3893,3.76099 -26.826,-24.30678 -39.3041,17.73074 -57.4732,14.36004 -29.0316,35.417088 -40.4263,82.996307 -44.4853,127.800649 19.3467,44.665527 -47.2966,41.807397 -46.8722,90.529357 11.0767,-18.41312 38.832,-5.49781 54.2215,-23.67361 0.4729,-48.843107 49.1013,28.69929 70.858,34.92949 18.4352,7.7968 49.4817,66.27333 68.8273,45.38994 z m -54.7038,-44.12559 c -17.5558,-35.18364 2.2917,-40.82438 3.88,-0.24021 l 0.3463,3.27513 z m -99.5115,-41.11192 c 0.8542,-17.27329 14.6945,7.26065 0,0 z m 56.8448,-0.73873 c 5.8762,-22.98909 46.1237,-92.501649 17.3426,-31.09662 -6.0863,9.93302 -9.3767,22.58613 -17.3426,31.09662 z m 3.0008,-75.647577 c -12.4943,-7.475862 -48.8692,-58.530021 -13.6975,-28.841522 6.4465,0.35378 29.7741,38.451212 13.6975,28.841522 z m 23.9076,-34.088062 c -7.959,-14.821039 28.1327,-7.327789 0,0 z M 375.56519,220.1924 c 4.9578,-27.90041 -19.8248,6.85218 0,0 z m 184.2097,-48.4597 c -9.5983,-17.13404 -49.5056,-10.72372 -10.845,-1.49506 4.0728,-2.74181 7.4639,4.53689 10.845,1.49506 z m -403.5263,-2.35351 c -1.5016,-26.99002 -21.0528,3.62927 0,0 z m 108.3735,-11.81885 c 28.8379,-33.4746 -10.4443,-35.37775 0,0 z m 97.3205,-6.28764 c 17.5471,3.15547 94.6901,-11.1241 54.5395,-29.21818 -37.2965,-11.63813 53.3691,-5.26474 72.3471,6.54818 43.1589,0.94513 -48.353,-24.55088 -66.0726,-22.75534 -29.7813,-7.631687 -130.1378,-14.022467 -95.1063,31.99005 -21.0777,13.10986 25.7577,16.91493 34.2923,13.43529 z m -25.9495,-20.64217 c -21.0965,-11.23421 37.1333,-8.39514 8.813,-2.08703 z m -86.8586,-25.95388 c -4.633,-5.942467 -1.7602,8.0869 0,0 z m -18.0994,-175.216236 c 28.1913,-25.15278 478.7607,222.239666 0,0 z M 161.20029,1038.0866 c 12.8323,-37.3598 22.6099,-83.64623 58.8249,-106.32563 4.2051,14.9025 -51.7669,50.55254 -29.9008,70.91263 25.0625,-2.3884 65.1668,-81.40419 39.2385,-20.63779 -11.6768,28.69139 -28.6497,66.33589 -68.1626,56.05079 z m -86.794895,-30.4085 c -24.8297,-23.36219 -7.0071,-32.23509 4.54,0.2771 6.5025,10.4056 15.4479,16.8157 -4.54,-0.2771 z m -12.2905,-31.40869 c 4.2924,-1.3765 0.4244,1.8499 0,0 z m -43.9301,-40.75264 c 1.1253,-20.66916 14.5155,10.4012 0,0 z m 332.251895,-2.6127 c -14.743,-13.15526 21.0844,9.0255 0,0 z m -119.9165,-8.59556 c 8.8404,-18.7753 51.2197,-42.221 17.3237,-11.0131 -5.8093,1.9058 -10.5193,13.51876 -17.3237,11.0131 z m -24.495,-1.7255 c -3.6407,-26.5946 67.6126,-68.73499 25.8279,-25.1009 -8.3965,7.6537 -15.8672,19.9178 -25.8279,25.1009 z m -26.6157,-5.0812 c -0.1053,-22.0623 7.5973,-4.7343 0,0 z m 193.2902,-54.45203 c -9.267,-34.47613 86.5279,-34.9229 57.8479,-23.96789 -22.6846,-0.71564 -43.9154,7.26112 -17.286,17.53406 -17.1665,-15.65586 -33.1752,-9.65387 -29.6418,6.61854 l -6.6241,1.25923 z m 160.2311,-56.63817 c -4.5183,-19.08479 13.579,3.44908 0,0 z"
         style="fill:#000000;stroke:#000000;stroke-width:1.9399755;stroke-linecap:round;stroke-linejoin:round;stroke-miterlimit:4;stroke-dasharray:none;stroke-opacity:1" />
    </g>
  </g>
</svg>
